G04 #@! TF.FileFunction,Copper,L1,Top,Signal*
%FSLAX46Y46*%
G04 Gerber Fmt 4.6, Leading zero omitted, Abs format (unit mm)*
G04 Created by KiCad (PCBNEW 4.0.6) date 06/26/17 16:49:34*
%MOMM*%
%LPD*%
G01*
G04 APERTURE LIST*
%ADD10C,0.100000*%
%ADD11C,5.460000*%
%ADD12R,1.520000X1.520000*%
%ADD13C,1.520000*%
%ADD14R,1.600000X1.600000*%
%ADD15O,1.600000X1.600000*%
%ADD16R,1.700000X1.700000*%
%ADD17O,1.700000X1.700000*%
%ADD18C,1.500000*%
%ADD19C,1.900000*%
%ADD20C,0.600000*%
%ADD21C,0.300000*%
%ADD22C,0.750000*%
G04 APERTURE END LIST*
D10*
D11*
X172212000Y-126111000D03*
X144272000Y-126111000D03*
D12*
X163322000Y-124841000D03*
D13*
X163322000Y-127381000D03*
X160782000Y-124841000D03*
X160782000Y-127381000D03*
X158242000Y-124841000D03*
X158242000Y-127381000D03*
X155702000Y-124841000D03*
X155702000Y-127381000D03*
X153162000Y-124841000D03*
X153162000Y-127381000D03*
D14*
X174625000Y-104245000D03*
D15*
X189865000Y-111865000D03*
X177165000Y-104245000D03*
X187325000Y-111865000D03*
X179705000Y-104245000D03*
X184785000Y-111865000D03*
X182245000Y-104245000D03*
X182245000Y-111865000D03*
X184785000Y-104245000D03*
X179705000Y-111865000D03*
X187325000Y-104245000D03*
X177165000Y-111865000D03*
X189865000Y-104245000D03*
X174625000Y-111865000D03*
D16*
X174625000Y-99800000D03*
D17*
X177165000Y-99800000D03*
X179705000Y-99800000D03*
D18*
X196850000Y-109180000D03*
X196850000Y-106680000D03*
X198850000Y-110430000D03*
X198850000Y-107930000D03*
D19*
X139865100Y-114176400D03*
X142405100Y-114176400D03*
X144945100Y-114176400D03*
X165265100Y-104016400D03*
X165265100Y-106556400D03*
X165265100Y-109096400D03*
X165265100Y-114176400D03*
X165265100Y-111636400D03*
X134785100Y-101476400D03*
X137325100Y-101476400D03*
X139865100Y-101476400D03*
X142405100Y-101476400D03*
X144945100Y-101476400D03*
X147485100Y-101476400D03*
X150025100Y-101476400D03*
X152565100Y-101476400D03*
X155105100Y-101476400D03*
X157645100Y-101476400D03*
X160185100Y-101476400D03*
X162725100Y-101476400D03*
X165265100Y-101476400D03*
X165265100Y-116716400D03*
X162725100Y-116716400D03*
X160185100Y-116716400D03*
X157645100Y-116716400D03*
X155105100Y-116716400D03*
X152565100Y-116716400D03*
X150025100Y-116716400D03*
X147485100Y-116716400D03*
X144945100Y-116716400D03*
X142405100Y-116716400D03*
X139865100Y-116716400D03*
X137325100Y-116716400D03*
X134785100Y-116716400D03*
X132245100Y-116716400D03*
X132245100Y-101476400D03*
X134785100Y-114176400D03*
D20*
X168402000Y-101473000D03*
X133477000Y-105410000D03*
X165265100Y-116716400D03*
X155702000Y-124841000D03*
D21*
X165265100Y-106556400D02*
X169316400Y-106556400D01*
X169316400Y-106556400D02*
X174625000Y-111865000D01*
X174625000Y-111865000D02*
X177165000Y-111865000D01*
X160782000Y-124841000D02*
X161842001Y-125901001D01*
X161842001Y-125901001D02*
X161842001Y-127889801D01*
X161842001Y-127889801D02*
X159487792Y-130244010D01*
X159487792Y-130244010D02*
X142053599Y-130244009D01*
X142053599Y-130244009D02*
X130105990Y-118296400D01*
X130105990Y-118296400D02*
X130105990Y-103615510D01*
X130105990Y-103615510D02*
X131295101Y-102426399D01*
X131295101Y-102426399D02*
X132245100Y-101476400D01*
X165265100Y-104016400D02*
X174396400Y-104016400D01*
X165265100Y-109096400D02*
X163921598Y-109096400D01*
X163921598Y-109096400D02*
X163195000Y-108369802D01*
X163195000Y-108369802D02*
X163195000Y-104742998D01*
X163195000Y-104742998D02*
X163921598Y-104016400D01*
X163921598Y-104016400D02*
X165265100Y-104016400D01*
D22*
X189865000Y-111865000D02*
X194165000Y-111865000D01*
X194165000Y-111865000D02*
X196850000Y-109180000D01*
X187325000Y-111865000D02*
X187325000Y-112996370D01*
X187325000Y-112996370D02*
X187993630Y-113665000D01*
X187993630Y-113665000D02*
X195615000Y-113665000D01*
X195615000Y-113665000D02*
X198850000Y-110430000D01*
D21*
X179705000Y-111865000D02*
X182245000Y-111865000D01*
D22*
X195580000Y-101600000D02*
X198850000Y-104870000D01*
X198850000Y-104870000D02*
X198850000Y-107930000D01*
X188838630Y-101600000D02*
X195580000Y-101600000D01*
X187325000Y-104245000D02*
X187325000Y-103113630D01*
X187325000Y-103113630D02*
X188838630Y-101600000D01*
X189865000Y-104245000D02*
X194415000Y-104245000D01*
X194415000Y-104245000D02*
X196850000Y-106680000D01*
D21*
X177165000Y-104245000D02*
X177165000Y-100435000D01*
X179705000Y-104245000D02*
X179705000Y-100435000D01*
X200660000Y-99695000D02*
X186055000Y-99695000D01*
X166215099Y-115126399D02*
X201103601Y-115126399D01*
X201103601Y-115126399D02*
X203200000Y-113030000D01*
X203200000Y-113030000D02*
X203200000Y-102235000D01*
X203200000Y-102235000D02*
X200660000Y-99695000D01*
X165265100Y-114176400D02*
X166215099Y-115126399D01*
X186055000Y-99695000D02*
X182245000Y-103505000D01*
X182245000Y-103505000D02*
X182245000Y-104245000D01*
X174625000Y-99800000D02*
X154241500Y-99800000D01*
X154241500Y-99800000D02*
X152565100Y-101476400D01*
X137325100Y-116716400D02*
X143689699Y-123080999D01*
X143689699Y-123080999D02*
X162621999Y-123080999D01*
X162621999Y-123080999D02*
X163322000Y-123781000D01*
X163322000Y-123781000D02*
X163322000Y-124841000D01*
X162725100Y-116716400D02*
X163675099Y-117666399D01*
X163675099Y-117666399D02*
X163675099Y-122654099D01*
X163675099Y-122654099D02*
X164973000Y-123952000D01*
X164973000Y-123952000D02*
X164973000Y-125857000D01*
X164973000Y-125857000D02*
X163449000Y-127381000D01*
X163449000Y-127381000D02*
X163322000Y-127381000D01*
X134785100Y-114176400D02*
X132076600Y-114176400D01*
X130556000Y-115697000D02*
X130556000Y-118110000D01*
X132076600Y-114176400D02*
X130556000Y-115697000D01*
X130556000Y-118110000D02*
X142240000Y-129794000D01*
X142240000Y-129794000D02*
X158369000Y-129794000D01*
X158369000Y-129794000D02*
X160782000Y-127381000D01*
X168402000Y-101473000D02*
X165268500Y-101473000D01*
X165268500Y-101473000D02*
X165265100Y-101476400D01*
X133477000Y-105410000D02*
X146091500Y-105410000D01*
X146091500Y-105410000D02*
X150025100Y-101476400D01*
M02*
