M48
;DRILL file {KiCad 4.0.6} date 06/23/17 14:44:16
;FORMAT={-:-/ absolute / inch / decimal}
FMAT,2
INCH,TZ
T1C0.016
T2C0.031
T3C0.036
T4C0.039
T5C0.106
%
G90
G05
M72
T1
X6.625Y-4.88
T2
X6.875Y-4.1041
X6.875Y-4.4041
X6.975Y-4.1041
X6.975Y-4.4041
X7.075Y-4.1041
X7.075Y-4.4041
X7.175Y-4.1041
X7.175Y-4.4041
X7.275Y-4.1041
X7.275Y-4.4041
X7.375Y-4.1041
X7.375Y-4.4041
X7.475Y-4.1041
X7.475Y-4.4041
X7.75Y-4.2
X7.75Y-4.2984
X7.8287Y-4.2492
X7.8287Y-4.3476
T3
X6.425Y-4.88
X6.425Y-4.98
X6.525Y-4.88
X6.525Y-4.98
X6.625Y-4.88
X6.625Y-4.98
X6.725Y-4.88
X6.725Y-4.98
X6.825Y-4.88
X6.825Y-4.98
T4
X5.2065Y-3.9951
X5.2065Y-4.5951
X5.3065Y-3.9951
X5.3065Y-4.4951
X5.3065Y-4.5951
X5.4065Y-3.9951
X5.4065Y-4.5951
X5.5065Y-3.9951
X5.5065Y-4.4951
X5.5065Y-4.5951
X5.6065Y-3.9951
X5.6065Y-4.4951
X5.6065Y-4.5951
X5.7065Y-3.9951
X5.7065Y-4.4951
X5.7065Y-4.5951
X5.8065Y-3.9951
X5.8065Y-4.5951
X5.9065Y-3.9951
X5.9065Y-4.5951
X6.0065Y-3.9951
X6.0065Y-4.5951
X6.1065Y-3.9951
X6.1065Y-4.5951
X6.2065Y-3.9951
X6.2065Y-4.5951
X6.3065Y-3.9951
X6.3065Y-4.5951
X6.4065Y-3.9951
X6.4065Y-4.5951
X6.5065Y-3.9951
X6.5065Y-4.0951
X6.5065Y-4.1951
X6.5065Y-4.2951
X6.5065Y-4.3951
X6.5065Y-4.4951
X6.5065Y-4.5951
X6.875Y-3.9291
X6.975Y-3.9291
X7.075Y-3.9291
T5
X6.075Y-4.93
X7.175Y-4.93
T0
M30
