M48
;DRILL file {KiCad 4.0.6} date Thursday, June 15, 2017 'AMt' 10:45:38 AM
;FORMAT={-:-/ absolute / metric / decimal}
FMAT,2
METRIC,TZ
T1C0.800
T2C1.000
%
G90
G05
M71
T1
X174.625Y-104.245
X174.625Y-111.865
X177.165Y-104.245
X177.165Y-111.865
X179.705Y-104.245
X179.705Y-111.865
X182.245Y-104.245
X182.245Y-111.865
X184.785Y-104.245
X184.785Y-111.865
X187.325Y-104.245
X187.325Y-111.865
X189.865Y-104.245
X189.865Y-111.865
X196.85Y-106.68
X196.85Y-109.18
X198.85Y-107.93
X198.85Y-110.43
T2
X132.245Y-101.476
X132.245Y-116.716
X134.785Y-101.476
X134.785Y-116.716
X137.325Y-101.476
X137.325Y-116.716
X139.865Y-101.476
X139.865Y-114.176
X139.865Y-116.716
X142.405Y-101.476
X142.405Y-114.176
X142.405Y-116.716
X144.945Y-101.476
X144.945Y-114.176
X144.945Y-116.716
X147.485Y-101.476
X147.485Y-116.716
X150.025Y-101.476
X150.025Y-116.716
X152.565Y-101.476
X152.565Y-116.716
X155.105Y-101.476
X155.105Y-116.716
X157.645Y-101.476
X157.645Y-116.716
X160.185Y-101.476
X160.185Y-116.716
X162.725Y-101.476
X162.725Y-116.716
X165.265Y-101.476
X165.265Y-104.016
X165.265Y-106.556
X165.265Y-109.096
X165.265Y-111.636
X165.265Y-114.176
X165.265Y-116.716
X174.625Y-99.8
X177.165Y-99.8
X179.705Y-99.8
T0
M30
