G04 #@! TF.FileFunction,Copper,L1,Top,Signal*
%FSLAX46Y46*%
G04 Gerber Fmt 4.6, Leading zero omitted, Abs format (unit mm)*
G04 Created by KiCad (PCBNEW 4.0.6) date Thursday, June 15, 2017 'AMt' 10:45:33 AM*
%MOMM*%
%LPD*%
G01*
G04 APERTURE LIST*
%ADD10C,0.100000*%
%ADD11C,1.900000*%
%ADD12R,1.600000X1.600000*%
%ADD13O,1.600000X1.600000*%
%ADD14R,1.700000X1.700000*%
%ADD15O,1.700000X1.700000*%
%ADD16C,1.500000*%
%ADD17C,0.300000*%
%ADD18C,0.750000*%
%ADD19C,0.250000*%
G04 APERTURE END LIST*
D10*
D11*
X139865100Y-114176400D03*
X142405100Y-114176400D03*
X144945100Y-114176400D03*
X165265100Y-104016400D03*
X165265100Y-106556400D03*
X165265100Y-109096400D03*
X165265100Y-114176400D03*
X165265100Y-111636400D03*
X134785100Y-101476400D03*
X137325100Y-101476400D03*
X139865100Y-101476400D03*
X142405100Y-101476400D03*
X144945100Y-101476400D03*
X147485100Y-101476400D03*
X150025100Y-101476400D03*
X152565100Y-101476400D03*
X155105100Y-101476400D03*
X157645100Y-101476400D03*
X160185100Y-101476400D03*
X162725100Y-101476400D03*
X165265100Y-101476400D03*
X165265100Y-116716400D03*
X162725100Y-116716400D03*
X160185100Y-116716400D03*
X157645100Y-116716400D03*
X155105100Y-116716400D03*
X152565100Y-116716400D03*
X150025100Y-116716400D03*
X147485100Y-116716400D03*
X144945100Y-116716400D03*
X142405100Y-116716400D03*
X139865100Y-116716400D03*
X137325100Y-116716400D03*
X134785100Y-116716400D03*
X132245100Y-116716400D03*
X132245100Y-101476400D03*
D12*
X174625000Y-104245000D03*
D13*
X189865000Y-111865000D03*
X177165000Y-104245000D03*
X187325000Y-111865000D03*
X179705000Y-104245000D03*
X184785000Y-111865000D03*
X182245000Y-104245000D03*
X182245000Y-111865000D03*
X184785000Y-104245000D03*
X179705000Y-111865000D03*
X187325000Y-104245000D03*
X177165000Y-111865000D03*
X189865000Y-104245000D03*
X174625000Y-111865000D03*
D14*
X174625000Y-99800000D03*
D15*
X177165000Y-99800000D03*
X179705000Y-99800000D03*
D16*
X196850000Y-109180000D03*
X196850000Y-106680000D03*
X198850000Y-110430000D03*
X198850000Y-107930000D03*
D17*
X165265100Y-106556400D02*
X169316400Y-106556400D01*
X169316400Y-106556400D02*
X174625000Y-111865000D01*
X174625000Y-111865000D02*
X177165000Y-111865000D01*
X165265100Y-104016400D02*
X174396400Y-104016400D01*
X165265100Y-109096400D02*
X163921598Y-109096400D01*
X163921598Y-109096400D02*
X163195000Y-108369802D01*
X163195000Y-108369802D02*
X163195000Y-104742998D01*
X163195000Y-104742998D02*
X163921598Y-104016400D01*
X163921598Y-104016400D02*
X165265100Y-104016400D01*
D18*
X189865000Y-111865000D02*
X194165000Y-111865000D01*
X194165000Y-111865000D02*
X196850000Y-109180000D01*
X187325000Y-111865000D02*
X187325000Y-112996370D01*
X187325000Y-112996370D02*
X187993630Y-113665000D01*
X187993630Y-113665000D02*
X195615000Y-113665000D01*
X195615000Y-113665000D02*
X198850000Y-110430000D01*
D17*
X179705000Y-111865000D02*
X182245000Y-111865000D01*
D18*
X195580000Y-101600000D02*
X198850000Y-104870000D01*
X198850000Y-104870000D02*
X198850000Y-107930000D01*
X188838630Y-101600000D02*
X195580000Y-101600000D01*
X187325000Y-104245000D02*
X187325000Y-103113630D01*
X187325000Y-103113630D02*
X188838630Y-101600000D01*
X189865000Y-104245000D02*
X194415000Y-104245000D01*
X194415000Y-104245000D02*
X196850000Y-106680000D01*
D17*
X163675099Y-100484901D02*
X164360000Y-99800000D01*
X164360000Y-99800000D02*
X174625000Y-99800000D01*
X162725100Y-101476400D02*
X163675099Y-100526401D01*
X163675099Y-100526401D02*
X163675099Y-100484901D01*
X177165000Y-104245000D02*
X177165000Y-100435000D01*
X179705000Y-104245000D02*
X179705000Y-100435000D01*
X200660000Y-99695000D02*
X186055000Y-99695000D01*
X166215099Y-115126399D02*
X201103601Y-115126399D01*
X201103601Y-115126399D02*
X203200000Y-113030000D01*
X203200000Y-113030000D02*
X203200000Y-102235000D01*
X203200000Y-102235000D02*
X200660000Y-99695000D01*
X165265100Y-114176400D02*
X166215099Y-115126399D01*
X186055000Y-99695000D02*
X182245000Y-103505000D01*
D19*
X182245000Y-103505000D02*
X182245000Y-104245000D01*
M02*
