G04 #@! TF.FileFunction,Copper,L2,Bot,Signal*
%FSLAX46Y46*%
G04 Gerber Fmt 4.6, Leading zero omitted, Abs format (unit mm)*
G04 Created by KiCad (PCBNEW 4.0.6) date 06/23/17 14:44:10*
%MOMM*%
%LPD*%
G01*
G04 APERTURE LIST*
%ADD10C,0.100000*%
%ADD11C,5.460000*%
%ADD12R,1.520000X1.520000*%
%ADD13C,1.520000*%
%ADD14R,1.600000X1.600000*%
%ADD15O,1.600000X1.600000*%
%ADD16R,1.700000X1.700000*%
%ADD17O,1.700000X1.700000*%
%ADD18C,1.500000*%
%ADD19C,1.900000*%
%ADD20C,0.600000*%
%ADD21C,0.300000*%
G04 APERTURE END LIST*
D10*
D11*
X154305000Y-125222000D03*
X182245000Y-125222000D03*
D12*
X163195000Y-126492000D03*
D13*
X163195000Y-123952000D03*
X165735000Y-126492000D03*
X165735000Y-123952000D03*
X168275000Y-126492000D03*
X168275000Y-123952000D03*
X170815000Y-126492000D03*
X170815000Y-123952000D03*
X173355000Y-126492000D03*
X173355000Y-123952000D03*
D14*
X174625000Y-104245000D03*
D15*
X189865000Y-111865000D03*
X177165000Y-104245000D03*
X187325000Y-111865000D03*
X179705000Y-104245000D03*
X184785000Y-111865000D03*
X182245000Y-104245000D03*
X182245000Y-111865000D03*
X184785000Y-104245000D03*
X179705000Y-111865000D03*
X187325000Y-104245000D03*
X177165000Y-111865000D03*
X189865000Y-104245000D03*
X174625000Y-111865000D03*
D16*
X174625000Y-99800000D03*
D17*
X177165000Y-99800000D03*
X179705000Y-99800000D03*
D18*
X196850000Y-109180000D03*
X196850000Y-106680000D03*
X198850000Y-110430000D03*
X198850000Y-107930000D03*
D19*
X139865100Y-114176400D03*
X142405100Y-114176400D03*
X144945100Y-114176400D03*
X165265100Y-104016400D03*
X165265100Y-106556400D03*
X165265100Y-109096400D03*
X165265100Y-114176400D03*
X165265100Y-111636400D03*
X134785100Y-101476400D03*
X137325100Y-101476400D03*
X139865100Y-101476400D03*
X142405100Y-101476400D03*
X144945100Y-101476400D03*
X147485100Y-101476400D03*
X150025100Y-101476400D03*
X152565100Y-101476400D03*
X155105100Y-101476400D03*
X157645100Y-101476400D03*
X160185100Y-101476400D03*
X162725100Y-101476400D03*
X165265100Y-101476400D03*
X165265100Y-116716400D03*
X162725100Y-116716400D03*
X160185100Y-116716400D03*
X157645100Y-116716400D03*
X155105100Y-116716400D03*
X152565100Y-116716400D03*
X150025100Y-116716400D03*
X147485100Y-116716400D03*
X144945100Y-116716400D03*
X142405100Y-116716400D03*
X139865100Y-116716400D03*
X137325100Y-116716400D03*
X134785100Y-116716400D03*
X132245100Y-116716400D03*
X132245100Y-101476400D03*
X134785100Y-114176400D03*
D20*
X168275000Y-123952000D03*
D21*
X133441598Y-114176400D02*
X134785100Y-114176400D01*
X131695600Y-114176400D02*
X133441598Y-114176400D01*
X129863011Y-116008989D02*
X131695600Y-114176400D01*
X129863011Y-118433011D02*
X129863011Y-116008989D01*
X130810000Y-119380000D02*
X129863011Y-118433011D01*
X165735000Y-123952000D02*
X161163000Y-119380000D01*
X161163000Y-119380000D02*
X130810000Y-119380000D01*
X168275000Y-123952000D02*
X168275000Y-104486300D01*
X168275000Y-104486300D02*
X165265100Y-101476400D01*
X173355000Y-126492000D02*
X172085000Y-125222000D01*
X172085000Y-125222000D02*
X172085000Y-113919000D01*
X172085000Y-113919000D02*
X170053000Y-111887000D01*
X170053000Y-111887000D02*
X170053000Y-102489000D01*
X170053000Y-102489000D02*
X167132000Y-99568000D01*
X167132000Y-99568000D02*
X164633500Y-99568000D01*
X164633500Y-99568000D02*
X163675099Y-100526401D01*
X163675099Y-100526401D02*
X162725100Y-101476400D01*
X173355000Y-123952000D02*
X174879000Y-125476000D01*
X174879000Y-125476000D02*
X174879000Y-127000000D01*
X174879000Y-127000000D02*
X173228000Y-128651000D01*
X173228000Y-128651000D02*
X138811000Y-128651000D01*
X138811000Y-128651000D02*
X129159000Y-118999000D01*
X129159000Y-118999000D02*
X129159000Y-112182500D01*
X129159000Y-112182500D02*
X138915101Y-102426399D01*
X138915101Y-102426399D02*
X139865100Y-101476400D01*
M02*
